<?xml version="1.0" encoding="UTF-8" standalone="no"?>
<!DOCTYPE svg PUBLIC "-//W3C//DTD SVG 1.1//EN"
 "http://www.w3.org/Graphics/SVG/1.1/DTD/svg11.dtd">
<!-- Generated by graphviz version 2.43.0 (0)
 -->
<!-- Title: %3 Pages: 1 -->
<svg width="669pt" height="455pt"
 viewBox="0.00 0.00 669.50 454.84" xmlns="http://www.w3.org/2000/svg" xmlns:xlink="http://www.w3.org/1999/xlink">
<g id="graph0" class="graph" transform="scale(1 1) rotate(0) translate(4 450.84)">
<title>%3</title>
<polygon fill="white" stroke="transparent" points="-4,4 -4,-450.84 665.5,-450.84 665.5,4 -4,4"/>
<g id="clust1" class="cluster">
<title>cluster306</title>
<path fill="none" stroke="black" d="M102.5,-8C102.5,-8 641.5,-8 641.5,-8 647.5,-8 653.5,-14 653.5,-20 653.5,-20 653.5,-109.95 653.5,-109.95 653.5,-115.95 647.5,-121.95 641.5,-121.95 641.5,-121.95 102.5,-121.95 102.5,-121.95 96.5,-121.95 90.5,-115.95 90.5,-109.95 90.5,-109.95 90.5,-20 90.5,-20 90.5,-14 96.5,-8 102.5,-8"/>
<text text-anchor="middle" x="631.5" y="-15.8" font-family="Times,serif" font-size="14.00">306</text>
</g>
<g id="clust2" class="cluster">
<title>clusterteam (18)</title>
<path fill="none" stroke="black" d="M252.5,-129.95C252.5,-129.95 492.5,-129.95 492.5,-129.95 498.5,-129.95 504.5,-135.95 504.5,-141.95 504.5,-141.95 504.5,-331.88 504.5,-331.88 504.5,-337.88 498.5,-343.88 492.5,-343.88 492.5,-343.88 252.5,-343.88 252.5,-343.88 246.5,-343.88 240.5,-337.88 240.5,-331.88 240.5,-331.88 240.5,-141.95 240.5,-141.95 240.5,-135.95 246.5,-129.95 252.5,-129.95"/>
<text text-anchor="middle" x="461.5" y="-137.75" font-family="Times,serif" font-size="14.00">team (18)</text>
</g>
<!-- away_team -->
<g id="node1" class="node">
<title>away_team</title>
<path fill="lightgrey" stroke="black" d="M633.5,-102.98C633.5,-102.98 561.5,-102.98 561.5,-102.98 555.5,-102.98 549.5,-96.98 549.5,-90.98 549.5,-90.98 549.5,-61.98 549.5,-61.98 549.5,-55.98 555.5,-49.98 561.5,-49.98 561.5,-49.98 633.5,-49.98 633.5,-49.98 639.5,-49.98 645.5,-55.98 645.5,-61.98 645.5,-61.98 645.5,-90.98 645.5,-90.98 645.5,-96.98 639.5,-102.98 633.5,-102.98"/>
<text text-anchor="middle" x="597.5" y="-87.78" font-family="Times,serif" font-size="14.00">away_team</text>
<text text-anchor="middle" x="597.5" y="-72.78" font-family="Times,serif" font-size="14.00">~</text>
<text text-anchor="middle" x="597.5" y="-57.78" font-family="Times,serif" font-size="14.00">Data</text>
</g>
<!-- home_team -->
<g id="node2" class="node">
<title>home_team</title>
<path fill="lightgrey" stroke="black" d="M519.5,-102.98C519.5,-102.98 445.5,-102.98 445.5,-102.98 439.5,-102.98 433.5,-96.98 433.5,-90.98 433.5,-90.98 433.5,-61.98 433.5,-61.98 433.5,-55.98 439.5,-49.98 445.5,-49.98 445.5,-49.98 519.5,-49.98 519.5,-49.98 525.5,-49.98 531.5,-55.98 531.5,-61.98 531.5,-61.98 531.5,-90.98 531.5,-90.98 531.5,-96.98 525.5,-102.98 519.5,-102.98"/>
<text text-anchor="middle" x="482.5" y="-87.78" font-family="Times,serif" font-size="14.00">home_team</text>
<text text-anchor="middle" x="482.5" y="-72.78" font-family="Times,serif" font-size="14.00">~</text>
<text text-anchor="middle" x="482.5" y="-57.78" font-family="Times,serif" font-size="14.00">Data</text>
</g>
<!-- home_points -->
<g id="node3" class="node">
<title>home_points</title>
<ellipse fill="lightgrey" stroke="black" cx="174.5" cy="-76.48" rx="75.82" ry="37.45"/>
<text text-anchor="middle" x="174.5" y="-87.78" font-family="Times,serif" font-size="14.00">home_points</text>
<text text-anchor="middle" x="174.5" y="-72.78" font-family="Times,serif" font-size="14.00">~</text>
<text text-anchor="middle" x="174.5" y="-57.78" font-family="Times,serif" font-size="14.00">Poisson</text>
</g>
<!-- away_points -->
<g id="node4" class="node">
<title>away_points</title>
<ellipse fill="lightgrey" stroke="black" cx="341.5" cy="-76.48" rx="73.58" ry="37.45"/>
<text text-anchor="middle" x="341.5" y="-87.78" font-family="Times,serif" font-size="14.00">away_points</text>
<text text-anchor="middle" x="341.5" y="-72.78" font-family="Times,serif" font-size="14.00">~</text>
<text text-anchor="middle" x="341.5" y="-57.78" font-family="Times,serif" font-size="14.00">Poisson</text>
</g>
<!-- home -->
<g id="node5" class="node">
<title>home</title>
<ellipse fill="none" stroke="black" cx="49.5" cy="-187.45" rx="49.49" ry="37.45"/>
<text text-anchor="middle" x="49.5" y="-198.75" font-family="Times,serif" font-size="14.00">home</text>
<text text-anchor="middle" x="49.5" y="-183.75" font-family="Times,serif" font-size="14.00">~</text>
<text text-anchor="middle" x="49.5" y="-168.75" font-family="Times,serif" font-size="14.00">Normal</text>
</g>
<!-- home&#45;&gt;home_points -->
<g id="edge5" class="edge">
<title>home&#45;&gt;home_points</title>
<path fill="none" stroke="black" d="M78.72,-156.79C87.75,-147.95 97.87,-138.37 107.5,-129.95 113.36,-124.83 119.66,-119.58 125.95,-114.49"/>
<polygon fill="black" stroke="black" points="128.27,-117.12 133.89,-108.14 123.9,-111.65 128.27,-117.12"/>
</g>
<!-- sd_def -->
<g id="node6" class="node">
<title>sd_def</title>
<ellipse fill="none" stroke="black" cx="295.5" cy="-409.36" rx="68.68" ry="37.45"/>
<text text-anchor="middle" x="295.5" y="-420.66" font-family="Times,serif" font-size="14.00">sd_def</text>
<text text-anchor="middle" x="295.5" y="-405.66" font-family="Times,serif" font-size="14.00">~</text>
<text text-anchor="middle" x="295.5" y="-390.66" font-family="Times,serif" font-size="14.00">Halfnormal</text>
</g>
<!-- defs_star -->
<g id="node11" class="node">
<title>defs_star</title>
<ellipse fill="none" stroke="black" cx="306.5" cy="-298.41" rx="57.97" ry="37.45"/>
<text text-anchor="middle" x="306.5" y="-309.71" font-family="Times,serif" font-size="14.00">defs_star</text>
<text text-anchor="middle" x="306.5" y="-294.71" font-family="Times,serif" font-size="14.00">~</text>
<text text-anchor="middle" x="306.5" y="-279.71" font-family="Times,serif" font-size="14.00">Normal</text>
</g>
<!-- sd_def&#45;&gt;defs_star -->
<g id="edge2" class="edge">
<title>sd_def&#45;&gt;defs_star</title>
<path fill="none" stroke="black" d="M299.19,-371.78C300.02,-363.6 300.9,-354.82 301.76,-346.3"/>
<polygon fill="black" stroke="black" points="305.27,-346.38 302.8,-336.08 298.31,-345.68 305.27,-346.38"/>
</g>
<!-- intercept -->
<g id="node7" class="node">
<title>intercept</title>
<ellipse fill="none" stroke="black" cx="174.5" cy="-187.45" rx="57.97" ry="37.45"/>
<text text-anchor="middle" x="174.5" y="-198.75" font-family="Times,serif" font-size="14.00">intercept</text>
<text text-anchor="middle" x="174.5" y="-183.75" font-family="Times,serif" font-size="14.00">~</text>
<text text-anchor="middle" x="174.5" y="-168.75" font-family="Times,serif" font-size="14.00">Normal</text>
</g>
<!-- intercept&#45;&gt;home_points -->
<g id="edge7" class="edge">
<title>intercept&#45;&gt;home_points</title>
<path fill="none" stroke="black" d="M174.5,-149.86C174.5,-141.69 174.5,-132.9 174.5,-124.38"/>
<polygon fill="black" stroke="black" points="178,-124.16 174.5,-114.16 171,-124.16 178,-124.16"/>
</g>
<!-- intercept&#45;&gt;away_points -->
<g id="edge10" class="edge">
<title>intercept&#45;&gt;away_points</title>
<path fill="none" stroke="black" d="M204.06,-155.04C213.74,-146.03 224.98,-136.81 236.5,-129.95 245.8,-124.42 249.6,-126.33 259.5,-121.95 267.77,-118.3 276.33,-114.13 284.66,-109.83"/>
<polygon fill="black" stroke="black" points="286.36,-112.89 293.59,-105.15 283.11,-106.7 286.36,-112.89"/>
</g>
<!-- sd_att -->
<g id="node8" class="node">
<title>sd_att</title>
<ellipse fill="none" stroke="black" cx="450.5" cy="-409.36" rx="68.68" ry="37.45"/>
<text text-anchor="middle" x="450.5" y="-420.66" font-family="Times,serif" font-size="14.00">sd_att</text>
<text text-anchor="middle" x="450.5" y="-405.66" font-family="Times,serif" font-size="14.00">~</text>
<text text-anchor="middle" x="450.5" y="-390.66" font-family="Times,serif" font-size="14.00">Halfnormal</text>
</g>
<!-- atts_star -->
<g id="node12" class="node">
<title>atts_star</title>
<ellipse fill="none" stroke="black" cx="439.5" cy="-298.41" rx="56.64" ry="37.45"/>
<text text-anchor="middle" x="439.5" y="-309.71" font-family="Times,serif" font-size="14.00">atts_star</text>
<text text-anchor="middle" x="439.5" y="-294.71" font-family="Times,serif" font-size="14.00">~</text>
<text text-anchor="middle" x="439.5" y="-279.71" font-family="Times,serif" font-size="14.00">Normal</text>
</g>
<!-- sd_att&#45;&gt;atts_star -->
<g id="edge1" class="edge">
<title>sd_att&#45;&gt;atts_star</title>
<path fill="none" stroke="black" d="M446.8,-371.78C445.98,-363.6 445.09,-354.82 444.23,-346.3"/>
<polygon fill="black" stroke="black" points="447.69,-345.68 443.2,-336.08 440.72,-346.38 447.69,-345.68"/>
</g>
<!-- defs -->
<g id="node9" class="node">
<title>defs</title>
<polygon fill="none" stroke="black" points="364.5,-213.95 250.5,-213.95 250.5,-160.95 364.5,-160.95 364.5,-213.95"/>
<text text-anchor="middle" x="307.5" y="-198.75" font-family="Times,serif" font-size="14.00">defs</text>
<text text-anchor="middle" x="307.5" y="-183.75" font-family="Times,serif" font-size="14.00">~</text>
<text text-anchor="middle" x="307.5" y="-168.75" font-family="Times,serif" font-size="14.00">Deterministic</text>
</g>
<!-- defs&#45;&gt;home_points -->
<g id="edge6" class="edge">
<title>defs&#45;&gt;home_points</title>
<path fill="none" stroke="black" d="M278.16,-160.86C266.8,-151.08 253.63,-139.89 241.5,-129.95 235.47,-125.02 229.08,-119.89 222.74,-114.85"/>
<polygon fill="black" stroke="black" points="224.78,-112 214.76,-108.55 220.44,-117.49 224.78,-112"/>
</g>
<!-- defs&#45;&gt;away_points -->
<g id="edge9" class="edge">
<title>defs&#45;&gt;away_points</title>
<path fill="none" stroke="black" d="M315.47,-160.9C318.97,-149.67 323.2,-136.13 327.21,-123.26"/>
<polygon fill="black" stroke="black" points="330.59,-124.18 330.23,-113.59 323.91,-122.1 330.59,-124.18"/>
</g>
<!-- atts -->
<g id="node10" class="node">
<title>atts</title>
<polygon fill="none" stroke="black" points="496.5,-213.95 382.5,-213.95 382.5,-160.95 496.5,-160.95 496.5,-213.95"/>
<text text-anchor="middle" x="439.5" y="-198.75" font-family="Times,serif" font-size="14.00">atts</text>
<text text-anchor="middle" x="439.5" y="-183.75" font-family="Times,serif" font-size="14.00">~</text>
<text text-anchor="middle" x="439.5" y="-168.75" font-family="Times,serif" font-size="14.00">Deterministic</text>
</g>
<!-- atts&#45;&gt;home_points -->
<g id="edge8" class="edge">
<title>atts&#45;&gt;home_points</title>
<path fill="none" stroke="black" d="M417,-160.78C405.28,-149.23 389.97,-136.7 373.5,-129.95 326.09,-110.53 307.76,-136.02 258.5,-121.95 248.86,-119.2 239.06,-115.25 229.73,-110.82"/>
<polygon fill="black" stroke="black" points="231.09,-107.59 220.57,-106.27 227.97,-113.86 231.09,-107.59"/>
</g>
<!-- atts&#45;&gt;away_points -->
<g id="edge11" class="edge">
<title>atts&#45;&gt;away_points</title>
<path fill="none" stroke="black" d="M416.52,-160.9C405.16,-148.27 391.17,-132.71 378.36,-118.47"/>
<polygon fill="black" stroke="black" points="380.68,-115.81 371.39,-110.72 375.47,-120.49 380.68,-115.81"/>
</g>
<!-- defs_star&#45;&gt;defs -->
<g id="edge4" class="edge">
<title>defs_star&#45;&gt;defs</title>
<path fill="none" stroke="black" d="M306.83,-260.82C306.94,-249.09 307.06,-236.1 307.17,-224.41"/>
<polygon fill="black" stroke="black" points="310.67,-224.14 307.26,-214.11 303.67,-224.07 310.67,-224.14"/>
</g>
<!-- atts_star&#45;&gt;atts -->
<g id="edge3" class="edge">
<title>atts_star&#45;&gt;atts</title>
<path fill="none" stroke="black" d="M439.5,-260.82C439.5,-249.09 439.5,-236.1 439.5,-224.41"/>
<polygon fill="black" stroke="black" points="443,-224.11 439.5,-214.11 436,-224.11 443,-224.11"/>
</g>
</g>
</svg>
