<?xml version="1.0" encoding="utf-8"?>
<!-- Generator: Adobe Illustrator 21.0.2, SVG Export Plug-In . SVG Version: 6.00 Build 0)  -->
<svg version="1.1" id="Ebene_1" xmlns="http://www.w3.org/2000/svg" xmlns:xlink="http://www.w3.org/1999/xlink" x="0px" y="0px"
	 viewBox="0 0 378.6 141.2" style="enable-background:new 0 0 378.6 141.2;" xml:space="preserve">
<style type="text/css">
	.st0{fill:url(#SVGID_1_);}
	.st1{fill:url(#SVGID_2_);}
	.st2{fill:#009EE3;}
	.st3{fill:#72A3C2;}
	.st4{fill:#0079A8;}
</style>
<linearGradient id="SVGID_1_" gradientUnits="userSpaceOnUse" x1="0" y1="70.43" x2="335.1" y2="70.43" gradientTransform="matrix(1 0 0 -1 0 144.93)">
	<stop  offset="0" style="stop-color:#FFFFFF"/>
	<stop  offset="1" style="stop-color:#7DC8EC"/>
</linearGradient>
<polygon class="st0" points="0,27.2 0,121.6 283.7,121.8 335.1,120.1 327.9,114.9 327.1,73.2 313.9,66.1 318.7,29.9 327.9,27.3 "/>
<g>
	<path d="M6.8,37.1h3.4v17.7l21.2-17.7h4.9L20,50.6l17.4,19.2h-4.8L17.3,52.9l-7.1,5.9v11.1H6.8V37.1z"/>
	<path d="M45.2,37.1h26.1v3.1H48.6v11.1h21.9v3.1H48.6v12.3h23.1v3.1H45.2V37.1z"/>
	<path d="M81.1,37.1h26.1v3.1H84.5v11.1h21.9v3.1H84.5v12.3h23.1v3.1H81.1V37.1z"/>
	<path d="M116.9,37.1h17.7c5.1,0,9.9,2.5,9.9,9.5c0,6.2-4.1,9.6-11.4,9.6h-12.8V70h-3.4C116.9,70,116.9,37.1,116.9,37.1z M120.3,53
		h13.1c5.7,0,7.3-2.6,7.3-6.4c0-4.9-2.8-6.3-6.7-6.3h-13.8L120.3,53L120.3,53z"/>
	<path d="M38.7,98.4c-0.7,7.3-6.8,13.3-16.2,13.3C11.8,111.7,5,105,5,94.5C5,87,9.6,77.3,22.5,77.3c7.2,0,14.9,3.3,15.9,11.9H35
		c-1-6.2-6.6-8.8-12.5-8.8c-8.1,0-13.8,4.5-13.8,14.1c0,7.3,3.8,14.1,13.8,14.1c7.8,0,11.7-3.9,12.8-10.2L38.7,98.4L38.7,98.4z"/>
	<path d="M63.8,77.3c9.3,0,17.8,5.6,17.8,17.2s-8.5,17.2-17.8,17.2S46,106.1,46,94.5S54.5,77.3,63.8,77.3z M63.8,108.6
		c7.2,0,14.1-4.2,14.1-14.1S71,80.4,63.8,80.4s-14.1,4.2-14.1,14.1S56.6,108.6,63.8,108.6z"/>
	<path d="M90.1,78.1h4.1l22.9,28h0.1v-28h3.4v32.8h-4l-23.1-28h-0.1v28H90V78.1H90.1z"/>
	<path d="M140.1,81.2h-12.9v-3.1h29.1v3.1h-12.9v29.7H140L140.1,81.2L140.1,81.2z"/>
	<path d="M163.5,78.1h17.9c5.6,0,10.7,2,10.7,8.9c0,3.5-2.2,7-6.4,7.9V95c4.6,0.7,5.6,3.7,5.8,9.1c0.1,2.1,0.4,6.1,1.1,6.8h-3.7
		c-0.6-0.7-0.8-3.1-0.9-6.7c-0.1-5.8-2.3-7.7-7.9-7.7h-13.2v14.4h-3.4L163.5,78.1L163.5,78.1z M166.9,93.3h14.4
		c3.7,0,7.1-1.4,7.1-6.4c0-4.8-3.6-5.7-6.8-5.7h-14.7V93.3z"/>
	<path d="M217.2,77.3c9.3,0,17.8,5.6,17.8,17.2s-8.5,17.2-17.8,17.2s-17.8-5.6-17.8-17.2S207.9,77.3,217.2,77.3z M217.2,108.6
		c7.2,0,14.1-4.2,14.1-14.1s-6.9-14.1-14.1-14.1c-7.2,0-14.1,4.2-14.1,14.1S210,108.6,217.2,108.6z"/>
	<path d="M243.4,78.1h3.4v29.7h20.8v3.1h-24.2V78.1z"/>
</g>
<linearGradient id="SVGID_2_" gradientUnits="userSpaceOnUse" x1="0.7" y1="23.38" x2="334.7" y2="23.38" gradientTransform="matrix(1 0 0 -1 0 144.93)">
	<stop  offset="0" style="stop-color:#0079A8;stop-opacity:0"/>
	<stop  offset="1" style="stop-color:#0079A8"/>
</linearGradient>
<polygon class="st1" points="0.7,123.1 0.7,120.1 334.7,120 332.8,122.8 0.7,122.9 "/>
<polygon class="st2" points="216.7,141.2 216.7,138.4 359.8,116.1 359.8,118.9 "/>
<g>
	<path class="st2" d="M314.6,11.8c0,6.5,5.3,11.8,11.8,11.8s11.8-5.3,11.8-11.8S332.9,0,326.4,0C319.9,0,314.6,5.3,314.6,11.8"/>
	<path class="st2" d="M337.5,112.5c0,3.1-2.5,5.5-5.6,5.5s-5.5-2.4-5.5-5.5l0,0V73.7c0,0-0.2-2.6-3.7,0L312.6,83v22.8v-0.3
		c0,3.1-2.5,5.5-5.5,5.5c-3.1,0-5.6-2.3-5.6-5.4v0.1V81.3c0,0,0.6-4,2.8-6.2L313,66l3.4-24.4c0,0,0-0.8-0.6-1l-29.5,2.7
		c-2.1,0.4-4.1-1.6-4.5-3.7s1-4.7,3.1-5.1l30.7-4.8c0,0,4.5-1.9,10.4-2.4c2.9-0.3,5.6,0.1,9.3,0.6l36.4-3.8c2.1-0.2,4,2,4.2,4.1
		s-1.4,4.6-3.5,4.8l-31.6,5.2c0,0-2.5,0.1-2.1,4.6V69c0,0-0.3,1.7-1.2,7.9L337.5,112.5L337.5,112.5"/>
	<path class="st3" d="M334.7,3.5c2.1,2.1,3.4,5.1,3.4,8.3c0,6.5-5.3,11.8-11.8,11.8c-2.1,0-4.1-0.6-5.8-1.5c2.1,2.2,5.1,3.5,8.4,3.5
		c6.5,0,11.8-5.3,11.8-11.8C340.8,9.4,338.3,5.5,334.7,3.5"/>
	<path class="st4" d="M329,2c-6.5,0-11.8,5.3-11.8,11.8c0,3.2,1.3,6.2,3.4,8.3c1.7,1,3.7,1.5,5.8,1.5c6.5,0,11.8-5.3,11.8-11.8
		c0-3.2-1.3-6.2-3.4-8.3C333,2.5,331.1,2,329,2"/>
	<path class="st3" d="M325.3,72.5c-0.5,0-1.3,0.3-2.5,1.2L312.7,83v22.8v-0.3l0,0c0,3.1-2.5,5.5-5.5,5.5c-0.7,0-1.4-0.1-2.1-0.4
		c1,1.4,2.7,2.3,4.7,2.3c3.1,0,5.5-2.5,5.5-5.5v0.3V84.9l10.1-9.3c0.4-0.3,0.7-0.5,1.1-0.7v-1.3C326.5,73.7,326.4,72.5,325.3,72.5
		 M315.9,40.7l-29.5,2.7c-0.2,0-0.3,0-0.5,0s-0.5,0-0.7-0.1c0.7,1.2,2,2.1,3.3,2.1c0.2,0,0.3,0,0.5,0l27.4-2.5l0.2-1.2
		C316.5,41.7,316.5,40.9,315.9,40.7 M375.3,26.2c0.4,0.6,0.6,1.3,0.7,2.1c0.2,2.1-1.4,4.6-3.5,4.8l-31.6,5.2c0,0-2.5,0.1-2.1,4.6
		v26.2c0,0-0.3,1.7-1.2,7.9v35.6v-0.1c0,3.1-2.5,5.5-5.6,5.5c-0.7,0-1.3-0.1-1.9-0.3c1,1.4,2.6,2.3,4.5,2.3c3.1,0,5.6-2.5,5.6-5.5
		v0.1V79.1c0.9-6.3,1.2-7.9,1.2-7.9V44.9c-0.3-4.6,2.1-4.6,2.1-4.6l31.6-5.2c2.1-0.2,3.7-2.6,3.5-4.8
		C378.4,28.4,377,26.6,375.3,26.2"/>
	<path class="st4" d="M374.6,26.1c-0.1,0-0.2,0-0.3,0l-36.4,3.8c-2.8-0.4-5.1-0.7-7.3-0.7c-0.7,0-1.3,0-2,0.1
		c-5.8,0.5-10.4,2.4-10.4,2.4l-30.6,4.9c-2.1,0.4-3.5,2.9-3.1,5.1c0.1,0.6,0.3,1.2,0.7,1.7c0.2,0.1,0.5,0.1,0.7,0.1s0.3,0,0.5,0
		l29.5-2.7c0.6,0.2,0.6,1,0.6,1l-0.2,1.2l2.2-0.2c0.6,0.2,0.6,1,0.6,1l-3.4,24.4l-8.7,9.1c-2.2,2.2-2.8,6.2-2.8,6.2v24.4v-0.1
		c0,1.1,0.4,2.2,1,3c0.6,0.2,1.3,0.4,2.1,0.4c3.1,0,5.5-2.5,5.5-5.5v0.3V83.2l10.1-9.3c1.1-0.9,1.9-1.2,2.5-1.2
		c1.1,0,1.2,1.2,1.2,1.2v1.3c0.6-0.3,1.1-0.5,1.4-0.5c1.1,0,1.2,1.2,1.2,1.2v38.9l0,0c0,1.2,0.4,2.3,1,3.2c0.6,0.2,1.2,0.3,1.9,0.3
		c3.1,0,5.6-2.5,5.6-5.5v0.1V77.4c0.9-6.2,1.2-7.9,1.2-7.9V42.9c-0.3-4.6,2.1-4.6,2.1-4.6l31.6-5.2c2.1-0.2,3.7-2.6,3.5-4.8
		c-0.1-0.7-0.3-1.4-0.7-2.1C375.1,26.2,374.8,26.1,374.6,26.1"/>
</g>
</svg>
